<?xml version="1.0" encoding="UTF-8"?>
<svg version="1.1" xmlns="http://www.w3.org/2000/svg" width="3840" height="2160">
<path d="M0 0 C26.94465377 -0.49605433 53.8287647 0.28520594 80.75 1.3125 C81.61774677 1.34536354 82.48549355 1.37822708 83.37953568 1.41208649 C101.62831277 2.10419233 119.87209844 2.84077522 138.10546875 3.8671875 C195.91306076 7.100753 253.71718052 6.77210767 311.56347656 4.62426758 C313.53589325 4.55252823 313.53589325 4.55252823 315.54815674 4.4793396 C317.99623127 4.38862092 320.44412942 4.29296188 322.89178467 4.19155884 C323.95487854 4.15146698 325.01797241 4.11137512 326.11328125 4.07006836 C327.03923096 4.03231796 327.96518066 3.99456757 328.91918945 3.95567322 C331 4 331 4 332 5 C332.09839533 6.48581434 332.12798549 7.9762639 332.12939453 9.46533203 C332.13412277 10.89415207 332.13412277 10.89415207 332.13894653 12.35183716 C332.1369223 13.39330902 332.13489807 14.43478088 332.1328125 15.5078125 C332.13376923 16.58062469 332.13472595 17.65343689 332.13571167 18.75875854 C332.13639448 21.0437628 332.13453321 23.32876897 332.13037109 25.61376953 C332.12509703 29.06156983 332.13027427 32.50923544 332.13671875 35.95703125 C332.13959258 46.15407379 332.0314009 56.25552075 331.22705078 66.42285156 C330.81396685 72.93092223 330.851916 79.44410575 330.86962891 85.96313477 C330.87503475 88.32770068 330.8696199 90.69208006 330.86328125 93.05664062 C330.86025766 100.76227163 331.03231809 108.34302489 332 116 C332.54076172 115.81937012 333.08152344 115.63874023 333.63867188 115.45263672 C343.20289593 112.27992786 352.72575195 109.21654092 362.55541992 106.97265625 C381.3306365 102.67208991 398.96908812 95.28131882 416.6484375 87.765625 C428.15661555 82.88130308 439.37083248 78.28276611 451.52978516 75.30200195 C461.00088745 72.91726088 470.04955604 69.41637061 479.13452148 65.86889648 C504.80766321 56.05468595 504.80766321 56.05468595 515 59 C516.84573508 60.66950912 517.99632741 62.40649054 519.31640625 64.515625 C521.35996992 67.53118531 523.7882332 70.02070905 526.375 72.5625 C526.85356445 73.03727783 527.33212891 73.51205566 527.82519531 74.0012207 C530.51288761 76.63729689 533.2813957 79.1097722 536.1875 81.5 C541.62464999 86.13164629 545.91968673 92.17688741 549.32421875 98.43359375 C551.60784159 101.93089027 554.48754652 104.5663755 557.5 107.4375 C565.43008097 115.18085732 572.96753678 123.52045572 578.5 133.1875 C580.89389587 137.26056744 584.19289978 140.26122936 587.57470703 143.5234375 C592.78356936 148.62345793 597.09736878 154.31731139 601.52148438 160.09375 C605.74719072 165.54195264 610.16041451 170.84436185 614.5234375 176.18261719 C615.83960814 177.80258647 617.13970262 179.43558696 618.4375 181.0703125 C622.26715445 185.8710579 626.24500818 190.26347622 630.6875 194.5 C635.06799665 198.7712876 637.72147775 202.7789723 640.40625 208.2265625 C644.55395215 215.44437752 651.14929198 221.15871341 657 227 C662.06303746 232.08361892 665.98021893 237.37984423 669.5625 243.5625 C673.86785736 250.98048346 678.49318557 256.92603624 685.0625 262.5 C691.082266 267.653197 694.83147686 273.70006698 698.8125 280.5 C701.92654221 285.65060214 705.1044657 289.20344264 709.71875 293.00390625 C716.83070474 299.22686664 722.0028849 307.31250549 727.12866211 315.17236328 C730.1016787 319.71677433 733.24416317 324.0923774 736.5 328.4375 C742.13773457 336.01195987 747.18555255 343.88102878 752 352 C752.54914063 352.90363281 753.09828125 353.80726563 753.6640625 354.73828125 C761.02002455 367.8800731 759.28445208 384.27900892 759.03643799 398.8215332 C758.99638259 401.21626883 758.96079718 403.61105208 758.92529297 406.00585938 C758.85400189 410.68094673 758.77035288 415.35570799 758.67959595 420.03045654 C758.64406468 421.88169723 758.6104166 423.73297533 758.57894897 425.58428955 C758.3920612 436.18576889 757.94731546 446.74162746 757.14916992 457.31542969 C757.06177205 458.48091654 756.97437418 459.64640339 756.88432789 460.84720802 C755.87675847 473.99765847 754.64825929 487.12659151 753.3971653 500.25571561 C753.05374078 503.86476663 752.71314188 507.47408476 752.37207031 511.08335876 C751.78547001 517.28651079 751.19665466 523.48944973 750.60678101 529.69229126 C749.98819409 536.19831804 749.37292392 542.70464924 748.76065063 549.21127319 C745.52308752 583.61648294 742.24457433 618.01519614 738.68000603 652.38825989 C737.33496006 665.36154578 736.00607187 678.3364982 734.6875 691.3125 C734.61692808 692.00627652 734.54635615 692.70005304 734.47364569 693.4148531 C730.33694108 734.11377941 727.00238313 774.60505885 727.93409729 815.54930115 C728.26341639 830.87746047 728.26341639 830.87746047 725.4375 835.625 C721.30789341 839.64871924 716.9255423 843.35870442 712.5390625 847.09765625 C705.85037984 852.93224558 700.29799454 859.2467928 695.23828125 866.5390625 C692.37488469 869.68729955 689.3191918 871.21768791 685.5625 873.125 C679.97378657 876.10260361 675.10411295 879.28777814 670.375 883.5 C660.04294169 892.59743954 649.36845281 898.50067657 636.72607422 903.77099609 C628.57205484 907.20695008 620.7160577 911.09702518 612.84207153 915.11993408 C597.31451027 923.04351362 582.11777223 929.63065934 565.15893555 933.81176758 C557.56171874 935.73251034 550.15311624 938.18462772 542.7177124 940.64266968 C516.28778771 949.37032762 488.94577556 958.19761865 460.875 958.4375 C459.95614014 958.44773193 459.03728027 958.45796387 458.09057617 958.46850586 C453.29051604 958.40401196 449.73357327 958.31140244 446 955 C444.05501764 952.50905107 442.39859541 949.88123485 440.75 947.1875 C439.78417896 945.64562984 438.8180283 944.1039661 437.8515625 942.5625 C437.37364258 941.79292969 436.89572266 941.02335938 436.40332031 940.23046875 C435.12105151 938.19240198 433.80457088 936.18545208 432.4609375 934.1875 C429.03942185 929.0787965 425.92162377 924.19748454 423.8125 918.375 C420.39698142 909.47323031 414.19484399 902.0246923 408.67138672 894.34033203 C402.57503379 885.80401313 397.43742147 877.02407224 392.6875 867.6875 C387.63089307 857.76921607 381.62132455 848.92368688 375 840 C369.58379552 832.6435077 365.02165358 825.30760984 361.08666992 817.08618164 C357.75866885 810.25097315 353.59054336 804.11225746 349.27880859 797.86865234 C347.09308165 794.67477033 344.97963507 791.43518052 342.875 788.1875 C342.28924194 787.29780518 342.28924194 787.29780518 341.69165039 786.39013672 C339 782.23248179 339 782.23248179 339 780 C340.18078125 779.95101562 341.3615625 779.90203125 342.578125 779.8515625 C344.13543937 779.77651121 345.69272991 779.70096439 347.25 779.625 C348.02730469 779.5940625 348.80460937 779.563125 349.60546875 779.53125 C353.67923579 779.32233887 356.36841214 778.89882228 360 777 C373.68786564 774.61766293 373.68786564 774.61766293 379.8359375 777.18359375 C382.17144684 778.95776137 384.05183208 780.80930506 386 783 C386.69351563 783.69996094 387.38703125 784.39992188 388.1015625 785.12109375 C392.33846695 789.57222371 395.56057009 794.24189999 398.48046875 799.640625 C401.06725887 803.65713202 404.58431962 806.65759873 408.1640625 809.76953125 C415.35803051 816.05142725 420.95806021 822.37274533 426.15771484 830.38549805 C429.75971293 835.8674101 433.78785346 839.99142165 439 844 C445.28375749 848.95870428 450.02616528 854.74319482 455 861 C456.01659123 862.19113358 457.03645693 863.3794985 458.0625 864.5625 C460 867 460 867 460 869 C466.22234702 869.38096002 470.98107663 868.62006789 475.71484375 864.51171875 C480.05457582 859.91612946 482.94964739 854.64415758 485.95336914 849.13769531 C488.43089174 844.71079265 491.16219539 841.51880977 494.859375 838.10546875 C503.98109674 829.13355631 513.78387464 816.15248155 514.31173706 803.03288269 C514.35302797 802.01876218 514.39431889 801.00464167 514.43686104 799.95979023 C514.47558264 798.85568397 514.51430424 797.7515777 514.55419922 796.61401367 C514.61736485 794.87711541 514.61736485 794.87711541 514.68180656 793.10512829 C515.12734497 779.79600325 515.14480776 766.49094531 515.1328125 753.17578125 C515.13298052 751.14562586 515.13382853 749.11547153 515.13475883 747.08531636 C515.13768235 740.70522798 515.13577208 734.3251548 515.13037109 727.94506836 C515.12559625 722.24193458 515.12550072 716.53882705 515.13037109 710.83569336 C515.16163697 673.21324882 514.86716276 635.61455501 514 598 C513.9641807 596.41332018 513.92837249 594.8266401 513.89257812 593.23995972 C513.69674343 584.67952919 513.45987566 576.12083003 513.1875 567.5625 C513.14742828 566.29054779 513.10735657 565.01859558 513.06607056 563.70809937 C510.62711093 487.20648574 505.7878895 410.83848273 490.1809082 265.58016968 C487.97383262 249.80543601 485.91822929 234.03986966 485.125 218.125 C484.34351086 205.08603364 482.14509052 192.50467312 479.5065918 179.72729492 C479.0538722 177.29002717 478.76687398 174.90815543 478.546875 172.44140625 C477.82158276 167.8772458 476.41797076 166.87781872 472.87890625 164.25390625 C472.25886719 163.84011719 471.63882813 163.42632812 471 163 C470.0925 162.38125 469.185 161.7625 468.25 161.125 C458.53694247 157.76278778 448.29327026 161.02165642 438.6875 163.4375 C436.68393797 163.92937799 434.67954582 164.41769645 432.67475891 164.90455627 C430.8685413 165.34504269 429.06444447 165.79419922 427.26049805 166.24389648 C422.25705762 167.40418514 417.51491685 168.0727017 412.37606812 168.23294067 C402.02767645 168.58869643 392.39125431 170.62324864 382.375 173.125 C380.70444801 173.53183309 379.03379252 173.93824142 377.36303711 174.34423828 C362.31779153 178.03578779 347.25006163 181.85391057 333 188 C330.57044796 208.22702151 330.75780816 228.39502904 330.84901789 248.72816762 C330.86934658 253.77748678 330.87763799 258.82682798 330.88728905 263.87617683 C330.90516111 272.50568408 330.92980679 281.13514887 330.95879364 289.76462555 C330.99835048 301.66887304 331.02171241 313.57310636 331.03944312 325.47740431 C331.11998299 379.47734123 331.28317448 433.47708437 331.46470231 487.47676539 C331.48494108 493.50387818 331.50496304 499.53099168 331.52490234 505.55810547 C331.52710747 506.22326218 331.52931261 506.8884189 331.53158456 507.57373188 C331.60275779 529.08284687 331.65487168 550.59195488 331.69677937 572.1011452 C331.74189341 595.20364434 331.80896994 618.30600588 331.89740312 641.40838158 C331.9445038 653.86201104 331.98293337 666.31550554 331.99522781 678.76922226 C332.06726561 744.965555 334.30451868 810.79077082 338.48713746 876.85664129 C339.03277599 885.47911763 339.55085777 894.10309366 340.06144714 902.72770691 C340.75843646 914.49354332 341.50756927 926.2554305 342.28321457 938.0163269 C342.51100611 941.47984535 342.73636019 944.94351608 342.96121216 948.40722656 C347.67854861 1021.00650674 352.82254901 1093.5783928 357.90639424 1166.1527102 C358.11947423 1169.19562229 358.33230864 1172.23855147 358.54508781 1175.2814846 C358.87706474 1180.02799643 359.20989337 1184.77444779 359.54339886 1189.52085245 C359.66428544 1191.24283854 359.78491799 1192.9648425 359.90526485 1194.6868664 C360.48254631 1202.94386571 361.07137332 1211.19755804 361.80557442 1219.44248581 C362.41093601 1227.40553697 362.34690162 1235.41918518 362.4050293 1243.40087891 C362.42674737 1245.64094325 362.46100963 1247.88091973 362.50756836 1250.12060547 C362.57459697 1253.38807147 362.60201234 1256.65381866 362.62109375 1259.921875 C362.64892441 1260.91475525 362.67675507 1261.9076355 362.70542908 1262.93060303 C362.687175 1269.12612437 361.57096246 1272.66263907 357.58363342 1277.44415283 C356 1279 356 1279 353 1281 C342.85292948 1267.42706965 335.65399007 1252.64946201 329.19824219 1237.06445312 C324.27765398 1225.22860603 318.26354186 1214.17347399 312 1203 C307.16603042 1194.36560867 302.81976345 1185.82510714 299.3125 1176.5625 C294.87087683 1164.87699323 288.82261989 1154.09640449 282.76123047 1143.18798828 C279.79405398 1137.81712737 276.90095241 1132.40684368 274 1127 C273.17617853 1140.23744449 272.85006064 1153.41441287 272.84851074 1166.6756134 C272.84464975 1168.69117826 272.84036034 1170.70674234 272.83568525 1172.72230548 C272.82416377 1178.20750159 272.81858937 1183.69268946 272.81405044 1189.17789519 C272.80805394 1195.11662431 272.79639673 1201.05534271 272.78541565 1206.99406433 C272.76712529 1217.27775092 272.75225411 1227.56143778 272.73963928 1237.84513283 C272.72129984 1252.77213169 272.69659101 1267.69911538 272.67026538 1282.62610205 C272.65796069 1289.60818764 272.64596639 1296.59027377 272.63405609 1303.57236004 C272.63286357 1304.27126629 272.63167104 1304.97017254 272.63044238 1305.69025776 C272.602171 1322.30237227 272.57696032 1338.9144912 272.55224609 1355.52661133 C272.5506243 1356.61563602 272.5506243 1356.61563602 272.54896974 1357.72666121 C272.5358335 1366.54934608 272.52278272 1375.37203107 272.50976673 1384.19471611 C272.48925129 1398.09994444 272.46861482 1412.00517258 272.44775391 1425.91040039 C272.44667444 1426.63067959 272.44559497 1427.3509588 272.4444828 1428.09306464 C272.41971528 1444.60867225 272.39408665 1461.12427795 272.36594391 1477.63988018 C272.36475366 1478.33860554 272.36356341 1479.0373309 272.36233709 1479.75722975 C272.35041761 1486.74381089 272.33835758 1493.73039177 272.32608688 1500.7169723 C272.29882652 1516.25777004 272.27469561 1531.79856505 272.25546753 1547.33937492 C272.24261152 1557.56277348 272.22642137 1567.78616353 272.20781839 1578.00955323 C272.19726633 1583.87142143 272.18807157 1589.73328179 272.18312263 1595.59515762 C272.15413473 1628.40599874 271.70559674 1661.19674245 271 1694 C262.98124284 1692.62488084 257.9124762 1686.78185569 253.26953125 1680.34765625 C247.62799224 1672.14532413 242.81947496 1663.95516303 239.75 1654.4375 C235.78096776 1643.11974442 229.72704581 1633.09415051 223.4375 1622.9375 C217.54332381 1613.41745738 212.36235358 1603.83655535 208.4375 1593.3125 C204.66698166 1583.21724122 199.06476504 1574.32793328 193.2512207 1565.30541992 C190 1560.21219369 190 1560.21219369 190 1558 C189.34 1558 188.68 1558 188 1558 C188.01228134 1558.97703384 188.02456268 1559.95406769 188.03721619 1560.96070862 C188.11964336 1570.47182249 187.71381996 1579.85453606 186.94140625 1589.33984375 C186.83103118 1590.75918984 186.72134299 1592.17858948 186.61228943 1593.59803772 C186.2691959 1598.04507439 185.91617817 1602.49129477 185.5625 1606.9375 C182.8130275 1640.5265115 182.8130275 1640.5265115 182.03794765 1674.20499992 C182.1265737 1685.19646814 181.7781865 1696.12258635 181.16625977 1707.09399414 C181.1223401 1707.8950754 181.07842043 1708.69615666 181.03316987 1709.5215131 C180.10537124 1726.34008259 178.84110989 1743.12479668 177.4677093 1759.9120357 C177.13674389 1763.96997832 176.81134588 1768.02836889 176.48500061 1772.08668518 C175.85831107 1779.86739617 175.22592214 1787.64763285 174.5908981 1795.42766768 C174.07854652 1801.70498051 173.56816399 1807.98245077 173.05883789 1814.26000977 C169.57681582 1857.16181941 166.05026953 1900.05960574 162.2700386 1942.93632889 C162.00655941 1945.92558149 161.7440677 1948.91491963 161.48165894 1951.90426636 C159.98235308 1968.94932796 158.42779741 1985.98666054 156.67578125 2003.0078125 C156.50597244 2004.6583387 156.50597244 2004.6583387 156.33273315 2006.34220886 C155.78300746 2011.67040418 155.22726384 2016.99788208 154.66210938 2022.32446289 C153.09778096 2037.19736842 152.04594608 2051.98675055 151.70947266 2066.94433594 C151.35310369 2081.94479142 150.77895991 2096.92948891 145 2111 C144.34 2111.33 143.68 2111.66 143 2112 C138.14800746 2089.08411056 133.73727115 2066.11655291 129.66790771 2043.04943848 C129.10544912 2039.87052471 128.53680155 2036.69272943 127.96839142 2033.51487541 C120.09492366 1989.46523009 120.09492366 1989.46523009 119.71558285 1977.10459709 C119.35480397 1965.62652201 117.67112097 1954.61074332 115.58984375 1943.3359375 C115.23397989 1941.35568607 114.87919049 1939.37524131 114.52537537 1937.3946228 C113.56698997 1932.04917465 112.5926823 1926.70674738 111.61470795 1921.36485291 C110.77848859 1916.78746758 109.95085119 1912.20854639 109.12316322 1907.62961197 C106.06315809 1890.70212438 102.96960456 1873.78079568 99.87359619 1856.85986328 C98.52273103 1849.47622878 97.1736282 1842.0922768 95.8270092 1834.70786667 C95.20557303 1831.30415634 94.58154722 1827.90092758 93.95741272 1824.49771118 C93.57897691 1822.42379169 93.20066879 1820.34984889 92.82250977 1818.27587891 C92.65165863 1817.34832794 92.4808075 1816.42077698 92.30477905 1815.46511841 C90.9577997 1808.05207715 89.96589278 1800.77415019 89.72910976 1793.23439884 C89.3513997 1781.74018478 87.69965133 1770.70358387 85.62109375 1759.41015625 C85.26636169 1757.43090181 84.91250271 1755.45149074 84.55943298 1753.47193909 C83.39483842 1746.97722263 82.20087179 1740.48809554 81 1734 C80.78949257 1732.86228905 80.57898514 1731.72457809 80.36209869 1730.55239105 C77.88569123 1717.1846896 75.38381664 1703.82173578 72.88085938 1690.45898438 C72.65003977 1689.22636557 72.41922016 1687.99374676 72.18140602 1686.72377586 C70.99667442 1680.40244287 69.80669504 1674.08215779 68.6081543 1667.76342773 C67.41953018 1661.49454721 66.24493478 1655.22317266 65.07919121 1648.94999886 C64.64136703 1646.60792214 64.19860435 1644.26676191 63.75032234 1641.92666435 C61.46844934 1630.00417576 59.66691314 1618.40231544 59.28820515 1606.25868225 C59.04398186 1598.56136224 58.03137137 1591.1742799 56.671875 1583.58984375 C56.41360405 1582.09513667 56.15588007 1580.600335 55.89862061 1579.10545349 C53.24221189 1563.83498265 50.32597799 1548.60977508 47.453125 1533.37890625 C47.32875628 1532.71932907 47.20438755 1532.05975188 47.07625008 1531.38018751 C46.18325117 1526.64456286 45.28918402 1521.90914059 44.39453125 1517.17382812 C44.26610305 1516.49389337 44.13767485 1515.81395861 44.00535488 1515.11341977 C42.5613677 1507.47021803 41.1111567 1499.82826752 39.64794922 1492.1887207 C38.46327348 1486.00301054 37.29106523 1479.81506592 36.13191295 1473.62452072 C35.52600359 1470.39126145 34.91270989 1467.15972105 34.28757477 1463.93011665 C31.75597724 1450.83843876 29.75497293 1438.00293066 29.03393555 1424.6784668 C28.21482792 1409.72644983 25.69218561 1395.2314809 22.84777951 1380.56091404 C22.14939832 1376.93852951 21.47092842 1373.31240893 20.7900238 1369.68670654 C19.50362539 1362.85236891 18.20066429 1356.02130911 16.89102262 1349.19139171 C15.2637588 1340.70064859 13.65819083 1332.20582593 12.05273438 1323.7109375 C10.40788125 1315.01034892 8.76146002 1306.31008946 7.10023499 1297.61260986 C-0.26691819 1259.03484008 -0.26691819 1259.03484008 -0.9140625 1249.74609375 C-1.00401993 1248.61204857 -1.00401993 1248.61204857 -1.09579468 1247.45509338 C-1.27992702 1245.11641264 -1.45305285 1242.77710471 -1.625 1240.4375 C-1.80643435 1238.06599786 -1.99025048 1235.69469858 -2.17562866 1233.32350159 C-2.28861852 1231.86891145 -2.3990481 1230.41411889 -2.5062561 1228.95909119 C-2.86003348 1224.28034111 -3.38886656 1219.65039428 -4 1215 C-2.04161598 1217.43288235 -0.09807783 1219.87065718 1.7890625 1222.359375 C7.55224294 1229.86377166 13.95555027 1236.42075324 21.9375 1241.5625 C26.10501515 1244.54048488 28.40244051 1248.44556564 31.125 1252.6875 C35.77777206 1259.89711171 40.93410963 1264.66584624 47.828125 1269.68359375 C54.82496995 1274.79335859 59.46141164 1280.66843419 64 1288 C65.65 1287.67 67.3 1287.34 69 1287 C68.461447 1272.60881965 66.45400298 1258.44235193 64.5 1244.1875 C64.01572066 1240.62797428 63.53312067 1237.06823558 63.05310059 1233.50813293 C62.75643517 1231.31056792 62.457219 1229.11334506 62.15490723 1226.91654968 C60.8616175 1217.38405832 59.9658883 1207.95673515 59.7641449 1198.33682251 C59.40628788 1182.95820444 57.52341721 1167.94271806 55.25279617 1152.74546814 C54.9319173 1150.58745453 54.61647576 1148.42871113 54.30270386 1146.26965332 C48.76411747 1108.17445398 42.58510361 1070.17318503 36.44140625 1032.171875 C36.28775227 1031.2213538 36.13409828 1030.2708326 35.97578812 1029.29150772 C35.53470096 1026.56500407 35.09286067 1023.83862386 34.65063477 1021.11230469 C34.51237369 1020.25872407 34.37411261 1019.40514345 34.2316618 1018.52569675 C33.54622756 1014.30750175 32.84872718 1010.09179222 32.13017273 1005.87910461 C31.99110976 1005.06019115 31.85204679 1004.24127769 31.7087698 1003.39754868 C31.44783986 1001.86583986 31.18438253 1000.33455836 30.91780949 998.80382156 C29.99550272 993.38582441 29.68466634 988.16889883 29.6875 982.6875 C29.45528396 972.83987407 28.10831151 963.2874163 26.48046875 953.59765625 C26.21431942 951.98624411 25.9482806 950.37481372 25.68234253 948.7633667 C22.40574447 929.04845193 18.78945951 909.39291055 15.17376709 889.73797607 C14.44444491 885.76689752 13.71968774 881.79499155 12.99490738 877.82308197 C8.95093772 855.6722364 4.80325313 833.54625223 0.40567017 811.46258545 C0.24320423 810.64165657 0.0807383 809.82072769 -0.08665085 808.97492218 C-0.38880499 807.44867431 -0.69325608 805.92287864 -1.00044632 804.39763641 C-1.56484356 801.54052633 -2 798.92113424 -2 796 C-42.95509138 791.12002482 -83.69018681 801.56163362 -121.23046875 817.640625 C-125.91836529 819.62361288 -130.4662446 821.0736771 -135.4375 822.125 C-140.13117243 823.13175873 -143.92623476 824.38273522 -148 827 C-148.66 827 -149.32 827 -150 827 C-150.8480466 831.4096957 -151.12560563 835.57396508 -151.12698364 840.06167603 C-151.12854505 840.75246345 -151.13010646 841.44325087 -151.13171518 842.15497124 C-151.13570166 844.47003526 -151.13254538 846.78503316 -151.12939453 849.10009766 C-151.13073149 850.77883567 -151.13249087 852.4575734 -151.13463593 854.13631058 C-151.13917586 858.75225192 -151.13731053 863.36817146 -151.13422441 867.98411322 C-151.13231793 871.94036564 -151.13393244 875.89661351 -151.13556135 879.85286582 C-151.13997766 890.66183666 -151.13692283 901.47079444 -151.13056505 912.27976382 C-151.12585509 920.37893299 -151.1235055 928.47810011 -151.12231445 936.57727051 C-151.11328268 988.20041182 -151.03324911 1039.82278403 -150.7734375 1091.4453125 C-150.76808479 1092.5132664 -150.76273208 1093.5812203 -150.75721717 1094.68153644 C-150.65843163 1114.34220941 -150.55414038 1134.00285364 -150.44516593 1153.66347271 C-150.11754426 1212.86431733 -149.96391445 1272.06274085 -150.0008378 1331.26434278 C-150.00394831 1336.27073749 -150.00660829 1341.27713238 -150.00921249 1346.28352737 C-150.02529586 1376.76044256 -150.04522845 1407.23734406 -150.09791435 1437.71422065 C-150.1206363 1450.86924389 -150.13676617 1464.02426152 -150.14670414 1477.17930073 C-150.1524164 1484.35660242 -150.16180375 1491.53385851 -150.18103218 1498.71113777 C-150.33574181 1557.60811084 -148.47713741 1613.21868276 -123.5 1667.6875 C-122.97849365 1668.8331543 -122.4569873 1669.97880859 -121.91967773 1671.15917969 C-109.58587049 1697.39741997 -90.03369952 1711.00705097 -65.70996094 1725.08178711 C-61.10804996 1727.78390007 -61.10804996 1727.78390007 -60 1730 C-58.5080535 1742.99685355 -58.5080535 1742.99685355 -61.5390625 1747.06640625 C-69.51317729 1752.22341099 -77.56732432 1750.86021584 -86.40625 1749.234375 C-88.68542581 1748.83571054 -90.9646429 1748.43728205 -93.24389648 1748.0390625 C-94.42958221 1747.82797852 -95.61526794 1747.61689453 -96.83688354 1747.39941406 C-121.53974166 1743.00905619 -121.53974166 1743.00905619 -146.4375 1740 C-147.51257812 1739.90041992 -148.58765625 1739.80083984 -149.6953125 1739.69824219 C-154.83512116 1739.27624683 -159.97216092 1738.99305542 -165.12524414 1738.80224609 C-177.98878606 1738.32394139 -190.70616451 1737.36043586 -203.50146484 1735.95889282 C-208.84397243 1735.37614063 -214.18954206 1734.8229464 -219.53515625 1734.26953125 C-220.60178497 1734.15894882 -221.6684137 1734.04836639 -222.7673645 1733.93443298 C-229.23570872 1733.26911811 -235.70563495 1732.63855249 -242.18359375 1732.07421875 C-242.8605983 1732.0148262 -243.53760284 1731.95543365 -244.23512268 1731.89424133 C-279.89041995 1728.87506275 -315.5652908 1727.61155011 -351.34128571 1727.68234634 C-354.17965415 1727.68760118 -357.01801157 1727.68950285 -359.85638428 1727.69100952 C-388.32703827 1727.71727872 -416.64088929 1728.25993757 -445 1731 C-445.75573303 1731.07214722 -446.51146606 1731.14429443 -447.2901001 1731.21862793 C-454.37690829 1731.89860496 -461.45520307 1732.62888564 -468.52734375 1733.44921875 C-480.70157724 1734.75115366 -480.70157724 1734.75115366 -483.890625 1732.90625 C-485.46005376 1730.20948509 -486.03832704 1727.53468092 -486.75 1724.5 C-488.42677969 1718.18587646 -490.86272126 1713.430253 -494.609375 1708.109375 C-496 1706 -496 1706 -496 1704 C-494.60498047 1702.70996094 -494.60498047 1702.70996094 -492.6171875 1701.234375 C-491.87331787 1700.68168945 -491.12944824 1700.12900391 -490.36303711 1699.55957031 C-489.54198486 1698.96241211 -488.72093262 1698.36525391 -487.875 1697.75 C-487.02623291 1697.12448242 -486.17746582 1696.49896484 -485.30297852 1695.85449219 C-479.91482692 1691.94029558 -474.40702637 1688.36322722 -468.70581055 1684.92529297 C-453.98962292 1676.01952707 -442.76117079 1664.75409814 -431.59448242 1651.78222656 C-430 1650 -430 1650 -427.265625 1647.4453125 C-424.56825106 1644.5340089 -423.19132797 1641.50878958 -421.75 1637.875 C-419.89856509 1633.39540545 -418.02466827 1628.96577365 -415.83203125 1624.640625 C-400.6816975 1594.67145311 -393.53536972 1560.03480145 -392.5703125 1526.59765625 C-392.11294933 1513.44272476 -391.06099485 1500.36097886 -389.95861816 1487.24688721 C-387.98760802 1463.72443483 -386.38378198 1440.20270784 -385.25 1416.625 C-385.19128723 1415.42234497 -385.13257446 1414.21968994 -385.07208252 1412.98059082 C-383.5874036 1382.19560133 -382.83779449 1351.43434488 -382.80016518 1320.61707067 C-382.79679928 1318.1515667 -382.79189047 1315.68607004 -382.7865448 1313.22056961 C-382.76183036 1301.67239778 -382.75199734 1290.1242557 -382.75043678 1278.57605886 C-382.74999834 1275.80200402 -382.74913275 1273.02794953 -382.74821472 1270.25389481 C-382.72492004 1184.04165009 -384.34185112 1098.03472841 -390.42232227 1012.01260662 C-390.56531336 1009.98173173 -390.70645961 1007.95073672 -390.84703064 1005.91969299 C-391.02318432 1003.38274072 -391.20302154 1000.84604007 -391.38746643 998.30967712 C-391.92623657 990.52653641 -392.10246148 982.80098737 -392 975 C-397.29364853 978.80844934 -402.56066698 982.63227215 -407.71166992 986.63232422 C-409.90124502 988.33202488 -412.10175648 990.0172147 -414.30419922 991.70019531 C-415.43933347 992.57025791 -416.57115873 993.44465388 -417.69970703 994.32324219 C-424.5238045 999.61031056 -430.79856817 1003.60644349 -439.00073242 1006.54760742 C-444.49109785 1008.59825926 -449.2364055 1011.44948877 -454.1875 1014.5625 C-469.82676348 1024.26714631 -486.90344948 1033.13105915 -504.94775391 1037.19677734 C-511.40192965 1038.69213944 -517.32949586 1041.01484702 -523.4375 1043.5625 C-534.06679717 1047.9762965 -544.82585306 1051.76553385 -555.75 1055.375 C-556.5129538 1055.62766632 -557.27590759 1055.88033264 -558.0619812 1056.14065552 C-562.37911857 1057.56751932 -566.70178721 1058.97592512 -571.03103638 1060.36560059 C-572.91153125 1060.9714954 -574.7887432 1061.58755121 -576.66577148 1062.20410156 C-582.68253495 1064.13705153 -588.27274438 1065.52176405 -594.5625 1066 C-601.34730017 1066.57422355 -607.92697784 1067.67329077 -614.58984375 1069.0625 C-615.95683411 1069.3419043 -615.95683411 1069.3419043 -617.35144043 1069.62695312 C-619.56847188 1070.08068472 -621.78459297 1070.53841427 -624 1071 C-623.63606604 1111.54214449 -623.27099853 1152.08427864 -622.90451852 1192.6264002 C-622.8607357 1197.47000892 -622.81696177 1202.31361772 -622.77319336 1207.15722656 C-622.76448383 1208.12104612 -622.75577429 1209.08486568 -622.74680083 1210.07789189 C-622.62497198 1223.56182125 -622.5036208 1237.04575485 -622.38265881 1250.52969202 C-622.1742683 1273.75938884 -621.96499382 1296.98907751 -621.75390625 1320.21875 C-621.74158956 1321.57431819 -621.74158956 1321.57431819 -621.72902405 1322.95727161 C-621.26392111 1374.12576902 -620.77281898 1425.29365706 -620.14908886 1476.46051311 C-619.95333757 1492.57761519 -619.7886876 1508.69504544 -619.625 1524.8125 C-619.61814918 1525.48645636 -619.61129836 1526.16041272 -619.60423994 1526.854792 C-619.47822658 1539.25334597 -619.47822658 1539.25334597 -619.45007229 1542.69946861 C-619.32800697 1552.72418014 -616.68794057 1561.50939355 -612 1570.3125 C-611.65710937 1570.97572266 -611.31421875 1571.63894531 -610.9609375 1572.32226562 C-609.98022233 1574.21819018 -608.99134271 1576.10961552 -608 1578 C-605 1583.75223214 -605 1583.75223214 -605 1586 C-604.16984375 1586.20367188 -603.3396875 1586.40734375 -602.484375 1586.6171875 C-598.003898 1588.39531402 -594.89802035 1591.0288507 -591.25 1594.125 C-589.82557749 1595.30605792 -588.40109846 1596.48704767 -586.9765625 1597.66796875 C-585.65061168 1598.77813247 -584.32505255 1599.88876429 -583 1601 C-571.4905672 1610.66832686 -571.4905672 1610.66832686 -557.8125 1616.5 C-553.7818264 1617.65889826 -550.35085065 1618.78394602 -547.20703125 1621.640625 C-544.29082894 1627.34090394 -545.56447207 1634.79199871 -546 1641 C-551.62794154 1639.79196779 -557.18762281 1638.44507494 -562.74438477 1636.94506836 C-588.24201383 1630.09077199 -613.78819436 1625.88918631 -640 1623 C-640.88862732 1622.90205139 -641.77725464 1622.80410278 -642.69281006 1622.70318604 C-670.89006514 1619.64453727 -699.00572661 1618.6295249 -727.34639168 1618.37961483 C-749.64126148 1618.18086702 -771.89184238 1617.5435535 -794.1698761 1616.66407394 C-825.81676684 1615.41820373 -857.45985626 1614.50835147 -889.125 1613.875 C-890.13665726 1613.85473629 -891.14831451 1613.83447258 -892.19062805 1613.81359482 C-928.45831855 1613.09069134 -964.72839282 1612.48793977 -1001 1612 C-1001.68799254 1608.71219093 -1002.12052529 1605.71721731 -1002.09765625 1602.35546875 C-1002.09443359 1601.51435547 -1002.09121094 1600.67324219 -1002.08789062 1599.80664062 C-1002.07951172 1598.94232422 -1002.07113281 1598.07800781 -1002.0625 1597.1875 C-1002.05798828 1596.30384766 -1002.05347656 1595.42019531 -1002.04882812 1594.50976562 C-1002.03709866 1592.33981441 -1002.01916495 1590.16989828 -1002 1588 C-1000.88625 1587.67128906 -999.7725 1587.34257813 -998.625 1587.00390625 C-982.39184097 1582.02232086 -968.86522547 1573.95912637 -954.96679688 1564.35644531 C-952.88642531 1562.92167068 -950.79468544 1561.50434129 -948.703125 1560.0859375 C-939.79002095 1553.98202189 -931.73198118 1547.55160837 -924 1540 C-923.32582031 1539.37609375 -922.65164063 1538.7521875 -921.95703125 1538.109375 C-913.83786816 1530.43828934 -908.63109218 1520.93028686 -903.875 1510.9375 C-903.37613281 1509.93267578 -902.87726563 1508.92785156 -902.36328125 1507.89257812 C-895.34379919 1493.27629368 -892.23420483 1478.73355126 -890.8125 1462.6875 C-890.65043577 1460.98050715 -890.48790952 1459.27355811 -890.32495117 1457.56665039 C-887.63565826 1428.7165389 -886.63603911 1399.80298741 -886.05859375 1370.84436035 C-885.99753187 1367.88018768 -885.93097942 1364.91617666 -885.86328125 1361.95214844 C-883.8520206 1273.01523568 -884.50812131 1183.92241059 -887 1095 C-887.52483475 1094.75354736 -888.04966949 1094.50709473 -888.59040833 1094.25317383 C-907.74793723 1085.2468298 -907.74793723 1085.2468298 -915.6875 1081 C-916.8487439 1080.38789673 -916.8487439 1080.38789673 -918.03344727 1079.76342773 C-921.84503887 1077.7409426 -925.61075617 1075.6637952 -929.328125 1073.47265625 C-936.18624096 1069.43927562 -942.01655617 1066.45439192 -949.890625 1064.84765625 C-960.20714508 1062.03523809 -969.75516804 1055.62554167 -978.98803711 1050.36791992 C-990.41138909 1043.89128108 -1001.86538497 1038.31130986 -1014.3671875 1034.2265625 C-1020.58371557 1032.00491804 -1025.65396615 1028.70488939 -1031.04980469 1024.98583984 C-1035.57297969 1021.88729577 -1040.18909296 1019.12631469 -1045 1016.5 C-1066.63674584 1004.58292725 -1082.59787444 989.16278818 -1098 970 C-1099.47835233 968.20766134 -1100.95752697 966.41600064 -1102.4375 964.625 C-1103.9585103 962.75014355 -1105.47933882 960.87513963 -1107 959 C-1107.804375 958.03835938 -1108.60875 957.07671875 -1109.4375 956.0859375 C-1115.12088035 949.07051488 -1119.37122908 941.85323627 -1123.46069336 933.80761719 C-1127.09217303 926.68639508 -1131.40789308 920.42285222 -1136.23046875 914.0546875 C-1144.41958541 902.80852143 -1149.29681993 890.21467646 -1154.56591797 877.4140625 C-1156.96646373 871.69917794 -1159.57219386 866.07698022 -1162.23461914 860.47973633 C-1164.57945607 855.41464238 -1166.00284755 850.49080301 -1167 845 C-1143.38923879 832.09736677 -1120.32739774 822.50777572 -1093.53051758 818.81494141 C-1081.78227344 817.12217826 -1070.2281596 814.60235074 -1058.625 812.125 C-1043.60512885 808.92906449 -1028.58734552 805.89167693 -1013.4375 803.375 C-1012.68905823 803.24885315 -1011.94061646 803.1227063 -1011.16949463 802.99273682 C-1009.07117572 802.64125482 -1006.97162912 802.29889449 -1004.87109375 801.9609375 C-1003.12203735 801.67935791 -1003.12203735 801.67935791 -1001.33764648 801.39208984 C-992.29785269 800.33014055 -992.29785269 800.33014055 -989.0625 802 C-987.35951407 805.20562058 -987.37565513 808.50489293 -988 812 C-989.99598201 816.9649173 -991.80322345 818.96279974 -996.55859375 821.3671875 C-997.66783203 821.94339844 -998.77707031 822.51960937 -999.91992188 823.11328125 C-1001.08072266 823.69464844 -1002.24152344 824.27601563 -1003.4375 824.875 C-1012.36808033 829.42463737 -1020.75787736 834.29133904 -1029 840 C-1035.59011396 844.46347783 -1041.98895712 848.15484413 -1049.5625 850.6875 C-1059.17042227 853.96882398 -1067.15449317 859.57336545 -1075.47753906 865.27880859 C-1077.96693641 866.97743919 -1080.47470156 868.64412269 -1082.9921875 870.30078125 C-1090.14975571 875.01823665 -1097.18886547 879.78914039 -1104 885 C-1103.360625 885.639375 -1102.72125 886.27875 -1102.0625 886.9375 C-1101.37994141 887.62199219 -1101.37994141 887.62199219 -1100.68359375 888.3203125 C-1099.43082224 889.57017734 -1098.17204426 890.81402751 -1096.91015625 892.0546875 C-1093.24909436 895.67194182 -1089.71651406 899.28066719 -1086.4375 903.25 C-1082.44959705 907.86757183 -1077.91862849 910.53840201 -1072.50390625 913.25 C-1067.06457181 916.02887623 -1062.49448876 919.13016866 -1057.9375 923.1875 C-1045.67293821 933.96838643 -1030.97928717 941.1342874 -1016.62768555 948.7199707 C-1009.0810427 952.75360723 -1001.97470103 957.16606637 -994.9284668 962.01000977 C-986.95153187 967.47133507 -978.68530095 971.37681538 -969.6875 974.875 C-959.90562521 978.68299288 -950.89127892 983.71787751 -941.84375 989.00390625 C-927.95254676 997.14189569 -927.95254676 997.14189569 -913 1003 C-912.25492188 1003.24105469 -911.50984375 1003.48210938 -910.7421875 1003.73046875 C-905.91886465 1005.05643758 -901.18420081 1005.08530573 -896.2109375 1005.04296875 C-895.51637451 1005.03986694 -894.82181152 1005.03676514 -894.10620117 1005.03356934 C-892.40411637 1005.02551992 -890.70205272 1005.01319111 -889 1005 C-889.76790305 917.54935537 -892.57757118 830.14603226 -895.625 742.75 C-895.6553707 741.87892404 -895.68574141 741.00784808 -895.71703243 740.11037588 C-897.41367679 691.49745795 -899.25918873 642.89091567 -901.20147514 594.28721094 C-901.35529152 590.43802875 -901.50894815 586.5888402 -901.6625824 582.73965073 C-902.62200881 558.71047704 -903.58576904 534.68149156 -904.57085049 510.65335464 C-909.58394933 388.35222129 -909.58394933 388.35222129 -908.82861328 338.30126953 C-908.61364913 322.91804821 -909.30599705 310.56889511 -917.125 296.9375 C-917.61218506 296.07334473 -918.09937012 295.20918945 -918.60131836 294.31884766 C-922.47785921 287.59293227 -926.67213183 281.67371225 -932 276 C-932.75539063 275.16597656 -933.51078125 274.33195312 -934.2890625 273.47265625 C-948.80599174 258.12821476 -967.94556257 248.5142673 -987 240 C-984.45470594 233.82693051 -982.17024277 228.88124297 -976.15625 225.3125 C-970.57806969 223.07253461 -964.62783245 223.92326268 -958.75 224.25 C-957.40658349 224.31052912 -956.06307235 224.36898793 -954.71948242 224.42553711 C-951.8893065 224.54584684 -949.05958179 224.67301329 -946.22998047 224.80615234 C-853.92737896 229.09703286 -761.03525542 224.4954007 -668.76171875 221.13671875 C-667.8013867 221.10178818 -666.84105465 221.0668576 -665.85162163 221.03086853 C-656.73936255 220.69874181 -647.62730646 220.36184394 -638.51571751 220.01178646 C-635.2241899 219.88570268 -631.93257872 219.76189094 -628.64095497 219.63834572 C-626.44487552 219.55491966 -624.24895717 219.46796645 -622.05302429 219.38078308 C-612.3640215 219.00985588 -602.69494006 218.94029873 -593 219 C-593.0943025 221.03372637 -593.18860499 223.06745275 -593.28290749 225.10117912 C-593.35188022 226.61692083 -593.41614186 228.13287817 -593.47802734 229.64892578 C-593.7097295 234.04287941 -594.10713899 237.95616057 -596 242 C-597.7421875 243.1875 -597.7421875 243.1875 -599.875 244 C-607.30824536 247.72258837 -611.92171203 254.62994032 -617 261 C-617.92517271 262.12810351 -618.85093118 263.25572696 -619.77734375 264.3828125 C-632.08587257 279.59268616 -635.27952242 293.33583326 -635.6171875 312.4375 C-635.63562588 313.33100159 -635.65406425 314.22450317 -635.67306137 315.14508057 C-636.25844271 343.63608302 -636.1533069 372.13817764 -636.12700987 400.63381958 C-636.12430039 403.82364244 -636.12247892 407.01346555 -636.12067896 410.20328903 C-636.10665578 434.84832769 -636.06359918 459.49327064 -636.00657177 484.13824463 C-635.99994422 487.0242917 -635.99350102 489.91033914 -635.98709869 492.79638672 C-635.90566076 628.55109177 -635.90566076 628.55109177 -632.42527008 764.24809837 C-632.07309532 773.0967017 -631.73351887 781.94574003 -631.39769733 790.79497528 C-630.59326477 811.98892978 -629.77254926 833.18222972 -628.9375 854.375 C-628.90481789 855.20456774 -628.87213578 856.03413548 -628.83846331 856.88884163 C-628.42741296 867.31350281 -628.01027808 877.73789959 -627.58483505 888.16198349 C-627.46548477 891.08802478 -627.34762694 894.01411926 -627.23126602 896.94028091 C-626.57512038 913.41010431 -625.76917647 929.85821191 -624.63983822 946.30258751 C-624.15488134 953.54988839 -623.8767728 960.73634022 -624 968 C-605.45776522 963.38357016 -588.18869171 955.34231233 -571.27246094 946.56933594 C-567.48387946 944.63572783 -563.75428741 943.17206046 -559.6875 941.9375 C-553.36925808 939.98753046 -548.44451657 936.67448855 -543 933 C-540.8395306 931.65664816 -538.6726337 930.32358794 -536.5 929 C-531.50510156 925.93899336 -526.5540462 922.81860037 -521.6328125 919.640625 C-516.73527586 916.58874757 -511.86179754 913.90310543 -506.6105957 911.515625 C-498.37820921 907.70303824 -491.5743199 902.83179281 -484.52246094 897.15722656 C-477.10092392 891.1987281 -469.51960226 885.85141646 -460.671875 882.203125 C-455.5922577 879.9852714 -451.58329943 876.8642214 -447.3125 873.375 C-445.74004797 872.1201787 -444.16580898 870.86759362 -442.58984375 869.6171875 C-441.81753418 869.00327148 -441.04522461 868.38935547 -440.24951172 867.75683594 C-435.92965853 864.38309342 -431.44250884 861.25072191 -426.9609375 858.09765625 C-424.5969634 856.42291471 -422.28982005 854.71041975 -420 852.9375 C-416.46668345 850.24943806 -412.74309145 847.88116505 -409 845.5 C-407.78743127 844.71926095 -406.57518424 843.93802204 -405.36328125 843.15625 C-403.37593446 841.8821322 -401.37738019 840.6247727 -399.35546875 839.40625 C-395.49602694 836.98027239 -395.49602694 836.98027239 -393.47490811 833.07802862 C-393.42034286 832.36472263 -393.36577761 831.65141664 -393.30955887 830.91649532 C-393.246952 830.11665718 -393.18434514 829.31681904 -393.1198411 828.49274337 C-392.92489221 824.43772762 -392.8554393 820.39555886 -392.85955811 816.33607483 C-392.85658698 815.40366626 -392.85361586 814.47125769 -392.8505547 813.51059431 C-392.8419267 810.40427039 -392.84036408 807.29798531 -392.83886719 804.19165039 C-392.83423248 801.95214253 -392.82920695 799.71263545 -392.82382202 797.47312927 C-392.81070334 791.37690486 -392.80424663 785.28069149 -392.79981136 779.18445516 C-392.79686185 775.33047739 -392.79275232 771.47650248 -392.78830719 767.62252617 C-392.77616674 756.83677409 -392.76581131 746.05102586 -392.7624321 735.26526737 C-392.76210275 734.22920952 -392.76210275 734.22920952 -392.76176675 733.17222121 C-392.76154847 732.48020803 -392.76133019 731.78819486 -392.7611053 731.07521158 C-392.76066191 729.67392035 -392.76021535 728.27262912 -392.75976562 726.87133789 C-392.75943348 725.82879091 -392.75943348 725.82879091 -392.75909463 724.76518237 C-392.7554605 714.40633327 -392.74076077 704.04754603 -392.71875 693.6887207 C-392.58140281 627.92653199 -393.02927031 562.27222679 -395.88877964 496.56374741 C-396.00594344 493.86299746 -396.12169201 491.16218967 -396.23711395 488.46136475 C-399.18267823 419.5564307 -403.10144858 350.72273168 -408.125 281.9375 C-408.18663078 281.09150364 -408.24826157 280.24550728 -408.31175995 279.37387466 C-409.11569329 268.3478372 -409.94835529 257.3243773 -410.81892395 246.30339813 C-411.00428828 243.94545042 -411.18658381 241.58727865 -411.36853027 239.22906494 C-411.67145461 235.31983537 -411.98665944 231.41176032 -412.31054306 227.50421333 C-412.42937025 226.05256239 -412.54473791 224.60062305 -412.6562233 223.14838982 C-413.52264495 211.92752481 -415.78471274 202.36890606 -420 192 C-420.74850899 189.25879373 -421.44548609 186.5224807 -422.06640625 183.75 C-423.45408831 181.14882191 -425.2509054 180.9788727 -428 180 C-431.12545774 178.20038689 -434.19713447 176.33856886 -437.26391602 174.44213867 C-440.75726211 172.29765366 -444.1750163 170.45407229 -447.9375 168.8125 C-452.09117144 166.56193658 -454.22709844 163.10672764 -456.5625 159.125 C-457.08348267 158.24098511 -457.08348267 158.24098511 -457.61499023 157.33911133 C-459.89230109 153.1053117 -460.75988687 149.76195771 -460 145 C-458.27734375 142.45703125 -458.27734375 142.45703125 -455 141 C-450.76790212 141.09054721 -446.71072496 141.88423781 -442.5625 142.6875 C-428.45286954 145.25814738 -414.62557003 146.12817815 -400.29296875 146.28125 C-398.91554679 146.2993967 -397.53813083 146.31800345 -396.16072083 146.33703613 C-391.8363655 146.395861 -387.5119446 146.44822694 -383.1875 146.5 C-377.51426193 146.56859808 -371.84108303 146.64054618 -366.16796875 146.71875 C-365.47338688 146.7281983 -364.77880501 146.7376466 -364.0631752 146.74738121 C-354.96402721 146.87513116 -345.87698753 147.11959915 -336.78515625 147.51953125 C-325.60230483 148.009752 -314.44321041 148.20201943 -303.25 148.1875 C-302.2088504 148.18623108 -301.16770081 148.18496216 -300.09500122 148.18365479 C-291.06292486 148.16359474 -282.03159723 148.08930367 -273 148 C-272.18392021 147.99214226 -271.36784042 147.98428452 -270.52703094 147.97618866 C-223.4307637 147.51690032 -176.60522924 146.55085723 -129.73936462 141.62808228 C-111.3560255 139.70687592 -111.3560255 139.70687592 -103.015625 139.5078125 C-101.75524414 139.47574707 -100.49486328 139.44368164 -99.19628906 139.41064453 C-95.11058321 140.16399726 -93.6169842 141.8654455 -91 145 C-94.16023333 148.66716496 -97.33808547 152.3012586 -100.66796875 155.81640625 C-101.13549561 156.31172852 -101.60302246 156.80705078 -102.0847168 157.31738281 C-103.43582366 158.74470357 -104.79582549 160.16358863 -106.15625 161.58203125 C-113.33608538 169.77133158 -118.01119089 179.66978374 -122.625 189.4375 C-123.22748276 190.70224902 -123.83035549 191.96681233 -124.43359375 193.23120117 C-125.98959892 196.49891989 -127.53515105 199.77147154 -129.07775879 203.04553223 C-129.98597913 204.97028615 -130.89808885 206.89314552 -131.81152344 208.81542969 C-133.55060814 212.47664967 -135.27662493 216.14385716 -137 219.8125 C-137.5151416 220.90038818 -138.0302832 221.98827637 -138.56103516 223.10913086 C-145.17512106 237.30629313 -149.80728377 250.12708272 -151.25 265.75 C-151.40664382 267.28097823 -151.56462673 268.81181998 -151.72387695 270.3425293 C-154.67351254 299.29932465 -156.02394339 328.33657411 -156.55078125 357.4296875 C-156.57159571 358.55630672 -156.59241016 359.68292595 -156.61385536 360.84368515 C-157.2323308 395.35347791 -157.19688423 429.86860596 -157.18797541 464.38276386 C-157.18749675 467.14377429 -157.18765261 469.90478394 -157.18803024 472.66579437 C-157.19568792 530.15768523 -156.83310178 587.63828885 -156.0625 645.125 C-156.04045985 646.78079471 -156.01842486 648.43658949 -155.99639511 650.09238434 C-155.52501955 685.39913615 -154.99629547 720.70342822 -154 756 C-152.93680038 755.73556091 -151.87360077 755.47112183 -150.77818298 755.19866943 C-120.60789484 747.7001906 -90.5964397 740.58328639 -59.69921875 736.84375 C-55.67849517 736.35673119 -51.69346429 735.80888819 -47.70703125 735.09375 C-27.78761627 731.52330776 -6.39326641 730.53557786 13 737 C13.94230469 737.30035156 14.88460937 737.60070312 15.85546875 737.91015625 C20.4081776 739.54066128 24.1384089 741.71293626 28.125 744.4375 C32.43195981 747.31280001 36.17300398 748.69295083 41.1875 749.9375 C50.25337222 752.32465444 57.33841589 757.54383688 64.96411133 762.828125 C74.2693121 769.27503 83.87346536 774.93673268 94 780 C93.88406494 778.80963135 93.76812988 777.6192627 93.64868164 776.39282227 C93.20355768 771.79176924 92.77301521 767.18943086 92.34594727 762.58666992 C92.16248706 760.62928699 91.97554161 758.67222627 91.78442383 756.71557617 C90.62400909 744.80507934 89.88828421 732.94909046 89.62852669 720.98719025 C89.27473983 704.9748407 87.90314397 689.24661171 85.88220978 673.34828568 C85.61776686 671.25525055 85.35915874 669.16156711 85.10223389 667.06759644 C79.90491687 624.72632077 73.90897595 582.46892626 67.4661293 540.30014992 C67.11136701 537.97399898 66.75864061 535.64754921 66.40670776 533.32096863 C66.29226381 532.5645876 66.17781986 531.80820658 66.05990791 531.02890491 C65.83188618 529.521585 65.60396346 528.01425011 65.3761425 526.50689983 C64.83435392 522.93115378 64.28578953 519.35673617 63.72003174 515.78469849 C61.61631206 502.49886635 59.84024892 489.5058229 59.71484375 476.04296875 C59.37802651 453.28323224 55.1260955 430.72404468 51.76641846 408.26221085 C50.88757816 402.36114225 50.02537182 396.4576544 49.16348052 390.55409205 C46.00678827 368.93687985 42.79644495 347.32763514 39.57418156 325.72010803 C38.42976831 318.04255807 37.29404495 310.36375152 36.16435909 302.684021 C35.53017449 298.37854386 34.88998112 294.07415989 34.23422241 289.77191162 C31.78351585 273.6913695 29.6795786 257.9031594 29.33177185 241.60760498 C29.0386675 229.45030994 27.32705013 217.58039388 25.5625 205.5625 C25.18438665 202.91372166 24.80738897 200.26480121 24.43139648 197.61572266 C23.40647991 190.41929679 22.36282921 183.22566876 21.31479549 176.03257751 C20.15333446 168.05963249 18.99785053 160.08582999 17.84375 152.11181641 C17.45384538 149.41826543 17.06390979 146.72471893 16.67396545 144.03117371 C16.57530467 143.34966985 16.47664389 142.668166 16.37499338 141.96601051 C13.73075947 123.70178774 11.08355376 105.43800223 8.42120957 87.1764096 C8.12364854 85.13523511 7.82619475 83.09404502 7.52877617 81.05284977 C6.60062047 74.68320739 5.67163503 68.31368805 4.7409668 61.94441223 C-0.24641278 27.76719904 -0.24641278 27.76719904 -0.6875 15.3125 C-0.73455078 14.26900391 -0.78160156 13.22550781 -0.83007812 12.15039062 C-1.15535589 3.85847384 -1.15535589 3.85847384 0 0 Z " fill="#030303" transform="translate(2122,26)"/>
</svg>
